
<svg xmlns="http://www.w3.org/2000/svg" viewBox="0 0 752 32">
  <svg id="icon-VectorUp" viewBox="0 0 55 32">
    <path d="M1.091 25.309 25.527.8c.291-.291.606-.496.945-.617.339-.122.703-.183 1.091-.183s.752.061 1.091.183c.339.12.655.326.945.617l24.509 24.509c.679.679 1.018 1.527 1.018 2.545s-.364 1.891-1.091 2.618c-.727.727-1.576 1.091-2.545 1.091s-1.818-.364-2.545-1.091L27.563 9.09 6.181 30.472c-.679.679-1.515 1.018-2.508 1.018-.995 0-1.856-.364-2.583-1.091s-1.091-1.576-1.091-2.545c0-.97.364-1.818 1.091-2.545z"/>
  </svg>
  <svg id="icon-Bag" viewBox="0 0 25 32">
    <path d="M22.814 8.593H18.37V7.112a5.93 5.93 0 0 0-5.926-5.926 5.93 5.93 0 0 0-5.926 5.926v1.481H2.074a1.482 1.482 0 0 0-1.482 1.482v16.296a4.444 4.444 0 0 0 4.445 4.445h14.815a4.444 4.444 0 0 0 4.445-4.445V10.075a1.482 1.482 0 0 0-1.482-1.482zM9.481 7.111a2.962 2.962 0 0 1 5.058-2.095c.556.556.868 1.309.868 2.095v1.481H9.481V7.111zM21.333 26.37a1.478 1.478 0 0 1-1.482 1.481H5.036a1.482 1.482 0 0 1-1.482-1.481V11.555h2.963v1.481a1.482 1.482 0 1 0 2.964 0v-1.481h5.926v1.481a1.482 1.482 0 1 0 2.964 0v-1.481h2.963V26.37z"/>
  </svg>
  <svg id="icon-basket" viewBox="0 0 32 32">
    <path fill="none" stroke="#000" stroke-linecap="round" stroke-linejoin="round" stroke-width="2.286" d="M11.429 2.286h9.143M2.286 6.857h27.429m-3.048 0-1.069 16.029c-.16 2.405-.24 3.607-.76 4.519a4.567 4.567 0 0 1-1.979 1.851c-.944.458-2.149.458-4.56.458h-4.6c-2.41 0-3.615 0-4.56-.458a4.57 4.57 0 0 1-1.978-1.851c-.519-.912-.6-2.114-.76-4.519L5.332 6.857m7.62 6.857v7.619m6.096-7.619v7.619"/>
  </svg>
  <svg id="icon-Icon-close" viewBox="0 0 32 32">
    <path fill="none" stroke="#000" stroke-linecap="round" stroke-linejoin="round" stroke-width="5.333" d="M28.444 3.556 3.555 28.445m.001-24.889 24.889 24.889"/>
  </svg>
  <svg id="icon-logo" viewBox="0 0 32 32">
    <path fill="#f6f6f6" d="m0 0 16.343 16.171L32 32V0H0z"/>
    <path fill="#f6f6f6" d="M4.457 4.229 16.4 16.058l11.257 11.486h-23.2V4.23z"/>
    <path fill="#4f2ee8" d="M27.733 27.618 15.79 15.789 4.533 4.303h23.2v23.314z"/>
    <path fill="#4f2ee8" d="m9.257 9.029 13.6 13.6h-13.6v-13.6z"/>
    <path fill="#f6f6f6" d="m9.257 9.029 13.6 13.6v-13.6h-13.6z"/>
  </svg>
  <svg id="icon-mob-menu" viewBox="0 0 32 32">
    <path  stroke-linecap="round" stroke-linejoin="round" stroke-width="2.286" d="M22.667 13.333H4M28 8H4M28 18.667H4M22.667 24H4"/>
  </svg>
  <svg id="icon-trident" viewBox="0 0 20 32">
    <path d="M9.005 30.888a8.64 8.64 0 0 1-3.414-5.351H0V2.42c2.991 1.443 5.153 4.599 5.388 7.876l.846 6.493-.407-.045c-.893 0-1.676.812-1.676 1.608 0 .752.595 1.383 1.378 1.548l1.018.226c1.676-3.051 2.631-6.042 2.631-8.973 0-2.645-.36-5.291-.423-7.996 0-1.202.486-2.3 1.253-3.156.783.857 1.253 1.954 1.253 3.156 0 2.705-.423 5.351-.423 7.996 0 2.931.955 5.922 2.631 8.973l1.018-.226c.783-.165 1.378-.812 1.378-1.548 0-.812-.783-1.608-1.676-1.608l-.423.06.846-6.493c.423-3.277 2.396-6.448 5.388-7.876v23.117h-5.576c-.423 2.179-1.613 4.148-3.414 5.351-.423.286-.783.631-1.018 1.097-.219-.466-.579-.812-.987-1.112zM2.647 17.556c.235-.857.893-1.608 1.738-2.074l-.658-5.351a8.288 8.288 0 0 0-2.036-4.374v11.784h.955v.015zm2.819 6.373c0-.812.125-1.548.298-2.3l-.783-.18c-1.143-.346-2.036-1.203-2.334-2.3h-.955v4.78h3.774zm3.712 0c0-.977-.783-1.834-1.801-1.954-.172.631-.298 1.263-.298 1.954h2.099zm0 1.623H7.314c.298 1.263.955 2.42 1.864 3.397v-3.397zm2.631-5.005c-.72-1.262-1.378-2.585-1.801-3.968-.423 1.383-1.081 2.706-1.801 3.968.72.165 1.316.631 1.801 1.157.486-.526 1.081-.992 1.801-1.157zm1.143 3.382c0-.691-.125-1.323-.297-1.954-1.018.12-1.801.977-1.801 1.954h2.099zm-.235 1.623h-1.864v3.397c.908-.992 1.566-2.134 1.864-3.397zm5.623-1.623v-4.78h-.955c-.298 1.097-1.206 1.954-2.334 2.3l-.783.18c.172.752.298 1.488.298 2.3h3.774zm0-6.373V5.757c-1.081 1.202-1.864 2.706-2.036 4.374l-.658 5.351c.846.466 1.504 1.203 1.739 2.074h.955z"/>
  </svg>
  <svg id="icon-Vector" viewBox="0 0 55 32">
    <path d="M24.724 19.048a3.812 3.812 0 0 0 5.41 0L47.582 1.562A3.822 3.822 0 0 1 50.287.435 3.816 3.816 0 0 1 54.1 4.248a3.808 3.808 0 0 1-1.108 2.686L35.506 24.42a11.43 11.43 0 0 1-16.152 0L1.868 6.934a3.808 3.808 0 0 1-.822-4.129A3.818 3.818 0 0 1 3.108.729a3.8 3.8 0 0 1 2.93 0c.464.193.886.477 1.24.834l17.448 17.486z"/>
  </svg>
</svg>
